<svg width="631" height="720" viewBox="0 0 631 720" fill="none" xmlns="http://www.w3.org/2000/svg">
<mask id="mask0_3_464" style="mask-type:luminance" maskUnits="userSpaceOnUse" x="0" y="0" width="631" height="720">
<rect x="0.5" y="0.5" width="630" height="719" rx="21.5" fill="white" stroke="white"/>
</mask>
<g mask="url(#mask0_3_464)">
<path d="M1278.65 335.686C1330.57 357.692 1372.4 388.479 1374.5 420.56C1380.16 507.044 1305.79 458.952 1278.65 335.686Z" fill="#C53E03" fill-opacity="0.2"/>
<path d="M-66 106.06C-66 106.06 -3.50021 68.0603 159.5 224.56C322.5 381.06 392 239.56 536.5 287.06C681 334.56 578 490.06 681.5 521.06C785 552.06 787 432.06 732.5 287.06C678 142.06 817.603 199.551 817.603 199.551C817.603 199.551 1030.5 251.06 895.5 509.56C760.5 768.06 1336.53 620.168 1127.5 420.56C918.468 220.953 1367.5 313.56 1374.5 420.56C1381.5 527.56 1266 428.56 1269 236.06" stroke="#F7AF00" stroke-width="48"/>
</g>
</svg>
