<svg width="300" height="435" viewBox="0 0 300 435" fill="none" xmlns="http://www.w3.org/2000/svg">
<mask id="mask0_3_470" style="mask-type:alpha" maskUnits="userSpaceOnUse" x="0" y="0" width="300" height="435">
<rect x="0.5" y="0.5" width="299" height="434" rx="21.5" fill="#E9DDCB" stroke="black"/>
</mask>
<g mask="url(#mask0_3_470)">
<path d="M-1198 -69.9148C-1198 -69.9148 -1135.31 -108.147 -971.805 49.3093C-808.303 206.766 -738.589 64.401 -593.644 112.191C-448.698 159.982 -552.016 316.432 -448.197 347.622C-344.378 378.811 -342.372 258.078 -397.039 112.191C-451.707 -33.695 -311.674 24.1473 -311.674 24.1473C-311.674 24.1473 -132.54 79.6883 -223 336.051C-313.46 592.414 297.043 444.829 9.7146 246.507C-277.614 48.1862 253.838 171.492 240.419 295.746C227 420 86 303 90.4581 82.4504" stroke="#C53E03" stroke-width="51"/>
</g>
</svg>
