<svg width="556" height="111" viewBox="0 0 556 111" fill="none" xmlns="http://www.w3.org/2000/svg">
<path d="M12.0503 16.605C13.8286 14.776 16.7824 12.8447 18.6119 12.3133C20.4413 11.7718 23.5484 11.5265 25.5107 11.7615C27.6571 12.017 30.0078 13.2228 31.3876 14.7862C32.6549 16.2065 33.6872 18.2911 33.6872 19.4151C33.6872 20.5391 32.7673 21.9186 31.6431 22.4806C30.5188 23.0426 27.1869 23.8498 24.2332 24.2688C19.4193 24.9534 18.6834 25.403 17.1299 28.6116C16.1692 30.5837 14.9529 34.947 14.4214 38.319C13.9002 41.6911 13.8184 45.1449 14.2477 45.9828C14.6769 46.8207 17.1605 48.0878 19.7566 48.7929C22.3628 49.4979 25.6436 51.2146 27.0438 52.6247C28.4543 54.0247 29.599 56.2114 29.6092 57.4785C29.6092 58.7455 28.8018 60.871 27.8206 62.2096C26.3897 64.1409 25.3881 64.5189 22.9556 64.0693C21.2692 63.7525 18.7447 63.1905 17.3343 62.8125C15.4231 62.2913 14.5339 62.5979 13.798 64.0182C13.2665 65.0605 12.5715 75.2584 12.2649 86.6825C11.7539 105.944 11.5597 107.569 9.66888 108.928C8.54462 109.735 6.24499 110.389 4.5586 110.399C1.82971 110.399 1.41067 109.98 0.736112 106.547C0.317069 104.432 -0.00998741 97.1768 0.000233146 90.4327C0.0206743 83.6886 0.449937 69.669 0.981406 59.2667C1.53332 48.2922 2.60647 37.7877 3.55699 34.2317C4.45639 30.8596 5.9997 26.2614 7.00131 24.0134C7.99271 21.7653 10.2719 18.4341 12.0503 16.605Z" fill="#3F643B"/>
<path d="M537.305 37.6344C539.973 33.6084 543.264 29.47 544.613 28.4379C545.962 27.4058 548.037 26.5577 549.212 26.5373C550.398 26.5168 552.278 27.4876 553.402 28.6831C555.201 30.6042 555.487 32.5661 555.804 44.8077C556.07 55.3939 555.661 61.7089 554.087 71.0178C552.953 77.7619 551.297 85.2315 550.418 87.6226C549.232 90.8107 548.129 92.0983 546.248 92.4763C544.848 92.7522 542.977 92.415 542.109 91.71C541.24 91.0049 540.289 89.0532 539.993 87.3672C539.697 85.6811 540.177 76.4846 541.056 66.9305C541.945 57.3763 542.436 49.3242 542.16 49.0483C541.884 48.7724 540.688 49.4571 539.503 50.5811C538.307 51.7051 535.844 55.6187 534.014 59.2667C532.185 62.9146 529.875 68.4428 528.873 71.5287C527.882 74.6147 526.206 78.8757 525.153 80.9807C524.11 83.0857 522.679 84.8024 521.974 84.8024C521.269 84.7922 519.664 84.5571 518.397 84.2914C516.138 83.801 516.097 83.5148 516.097 68.9741C516.097 59.7776 515.709 54.1575 515.075 54.1575C514.513 54.1575 513.409 55.6494 512.622 57.4785C511.846 59.3076 510.139 64.7028 508.831 69.485C507.533 74.2672 505.529 79.172 504.385 80.3982C503.24 81.6142 500.807 82.8813 498.978 83.2083C496.004 83.7294 495.574 83.4944 494.89 80.9807C494.471 79.4377 494.123 74.0322 494.123 68.9741C494.123 63.916 494.512 54.7195 494.982 48.5374C495.789 37.8899 495.983 37.2053 498.559 35.6112C500.051 34.6813 502.433 33.7617 503.833 33.5675C506.194 33.2405 506.408 33.5573 506.705 37.8081C506.889 40.3423 507.349 42.7845 507.727 43.2545C508.115 43.7246 509.781 42.3451 511.437 40.189C513.093 38.0329 515.627 34.9981 517.058 33.4449C518.499 31.8815 520.594 30.6042 521.719 30.5837C522.843 30.5735 524.305 31.156 524.959 31.8917C525.613 32.6172 527.105 35.8564 528.28 39.0854C529.445 42.3144 530.866 44.961 531.428 44.961C531.99 44.961 534.638 41.6604 537.305 37.6344Z" fill="#3F643B"/>
<path d="M123.823 11.4443C124.467 10.7089 126.409 10.2494 131.293 10.7295L131.804 21.1221C132.09 26.8322 132.693 31.8886 133.163 32.3613C133.634 32.8314 137.886 33.3222 151.224 33.7207L150.11 36.5313C149.497 38.074 148.229 39.9129 147.299 40.5977C146.369 41.2925 143.763 42.3659 141.514 42.9893C139.266 43.6024 136.394 44.7567 135.126 45.5537C132.857 46.9843 132.837 47.2297 133.43 62.5879C133.972 76.5256 134.359 79.0396 137.088 86.3457C138.948 91.322 140.001 95.9202 139.807 98.0967C139.531 101.039 139.02 101.724 136.914 101.989C135.514 102.153 133.092 101.816 131.549 101.224C129.74 100.529 128.033 98.5872 126.766 95.7979C125.672 93.4068 124.241 87.3159 123.567 82.2578C122.892 77.2 121.696 71.2229 120.919 68.9746C120.132 66.7266 119.509 61.0957 119.539 48.0264L115.707 47.5254C113.602 47.2597 111.303 46.3407 110.597 45.4824C109.892 44.6343 109.555 42.7847 109.83 41.3848C110.198 39.5557 111.649 38.247 119.539 34.7422L119.53 28.8672C119.519 25.6383 120.215 20.6929 121.083 17.8828C121.942 15.0728 123.169 12.1698 123.823 11.4443ZM229.156 28.6113C233.019 28.6114 235.553 29.133 236.565 30.1445C237.413 30.9824 238.098 33.0562 238.098 34.7422C238.098 36.6222 237.403 38.1757 236.31 38.7481C235.329 39.259 231.997 40.0455 228.9 40.4951C225.813 40.9447 222.44 42.0186 221.428 42.877C219.977 44.1029 219.773 45.0023 220.519 47.0049C221.04 48.405 225.087 53.473 229.523 58.2549C233.959 63.037 238.619 69.0151 239.876 71.5391C241.134 74.063 242.166 77.9668 242.176 80.2149C242.197 82.4628 241.512 85.3336 240.663 86.6006C239.815 87.8677 237.168 89.9116 234.777 91.1582C231.312 92.9566 228.777 93.3964 222.256 93.3555C216.175 93.3044 212.833 92.7316 209.225 91.0967C206.282 89.7581 203.573 87.592 202.327 85.5791C201.213 83.75 200.282 81.1031 200.272 79.7031C200.262 78.2931 200.804 76.5761 201.489 75.8711C202.174 75.1662 203.676 74.6041 204.83 74.6143C205.985 74.6245 210.84 76.0045 215.613 77.6904C220.396 79.3662 225.332 80.7352 226.6 80.7354C227.867 80.7251 228.899 80.4905 228.9 80.2149C228.9 79.939 228.215 78.3237 227.367 76.6377C226.528 74.9514 222.389 69.8933 218.168 65.3975C213.958 60.9014 209.583 55.3838 208.458 53.1357C207.334 50.8878 206.415 47.3218 206.414 45.2168C206.425 43.1118 207.344 39.8926 208.458 38.0635C209.808 35.8768 212.68 33.7 216.891 31.6768C221.705 29.3676 224.73 28.6113 229.156 28.6113ZM169.621 23.5332C171.593 23.5434 175.037 24.4021 177.286 25.4443C179.534 26.4968 183.081 29.1224 185.156 31.2988C187.241 33.4753 189.868 37.3174 191.002 39.8516C192.137 42.3857 193.496 47.8941 194.028 52.1143C194.641 56.927 194.641 62.251 194.028 66.4199C193.496 70.0679 192.045 75.1261 190.808 77.6602C189.571 80.1943 187.057 83.7501 185.217 85.5791C183.388 87.4081 180.046 89.8193 177.797 90.9434C175.549 92.0674 171.756 93.0074 169.365 93.0176C166.667 93.0482 164.05 92.3336 162.466 91.1484C161.066 90.096 158.899 86.7442 157.663 83.6992C156.436 80.6644 154.944 76.3311 154.351 74.083C153.758 71.8349 153.278 68.1561 153.278 65.9082C153.278 63.6597 154.883 56.5271 160.422 38.3193L158.286 36.2754C156.732 34.7836 156.314 33.4756 156.753 31.4219C157.162 29.5213 158.766 27.7841 161.7 26.0674C164.112 24.6573 167.627 23.523 169.621 23.5332ZM101.828 49.8145C101.613 59.7874 100.969 71.8553 100.397 76.6377C99.8245 81.4097 99.0686 86.356 98.7211 87.6231C98.2305 89.3498 97.3199 89.9219 95.0102 89.9219C92.3736 89.9218 91.76 89.38 90.6664 86.0899C89.7977 83.4737 89.3891 74.9102 89.3891 59.1641C89.3891 41.3436 89.7065 35.7031 90.7592 34.4463C91.5156 33.5574 93.355 32.6271 94.8471 32.4023C96.3393 32.1673 98.6084 31.9118 102.216 31.6768L101.828 49.8145ZM351.546 25.4951C355.624 25.4849 357.945 26.0473 359.979 27.5596C362.288 29.2556 362.789 30.4106 362.769 33.9766C362.759 37.052 361.941 39.4738 359.958 42.2529C358.425 44.4192 354.868 47.9553 352.057 50.1113C349.246 52.2673 345.107 54.7909 342.859 55.7207C340.61 56.6607 337.729 58.4081 336.441 59.624C335.164 60.8295 334.142 62.2805 334.162 62.8428C334.182 63.4048 335.459 65.6326 337.002 67.7988C338.535 69.965 341.172 72.5909 342.859 73.6436C344.545 74.696 347.08 75.5551 348.48 75.5654C349.89 75.5654 353.907 73.9712 357.423 72.0195C360.939 70.0577 364.506 68.463 365.344 68.4629C366.192 68.4629 367.143 69.0353 367.47 69.7402C367.797 70.4452 367.378 72.3971 366.54 74.083C365.702 75.769 363.709 78.3851 362.115 79.8975C360.52 81.4097 357.147 83.586 354.613 84.7305C352.088 85.8749 347.826 86.8257 345.159 86.8359C342.491 86.8462 338.811 86.2229 336.982 85.4463C335.152 84.6798 332.424 82.718 330.901 81.1035C329.388 79.489 327.109 75.8716 325.831 73.0615C323.992 69.0049 323.522 66.164 323.552 59.2666C323.583 52.8904 324.176 49.0789 325.781 44.9609C326.976 41.875 329.511 37.5019 331.392 35.2539C333.273 33.0059 337.319 29.8989 340.375 28.3457C344.402 26.2919 347.468 25.5156 351.546 25.4951ZM469.849 25.5566C472.803 25.5464 476.135 26.0064 477.259 26.5684C478.383 27.1304 479.968 29.0821 480.786 30.9111C481.961 33.537 482.032 35.0803 481.143 38.3193C480.53 40.5674 478.373 44.1334 476.339 46.2383C474.316 48.3433 469.021 52.022 464.576 54.4131C460.12 56.8038 456.043 59.4497 455.49 60.2881C454.948 61.126 454.835 63.2007 455.234 64.8867C455.643 66.5727 457.779 69.6792 459.976 71.7842C462.613 74.3183 464.923 75.6162 466.784 75.6162C468.327 75.6159 472.814 73.9405 476.748 71.8867C481.184 69.5673 484.587 68.4026 485.691 68.8213C486.672 69.1891 487.48 70.4044 487.48 71.5283C487.48 72.6524 486.213 75.0031 484.669 76.7402C483.126 78.4876 479.099 81.2665 475.726 82.9219C472.353 84.567 467.529 86.1823 464.995 86.499C461.98 86.8771 458.903 86.5085 456.051 85.4356C453.66 84.526 450.563 82.2987 449.173 80.4697C447.773 78.6407 445.923 74.85 445.065 72.04C444.206 69.23 443.5 63.7114 443.5 59.7774C443.49 55.5163 444.309 49.9368 445.525 45.9824C446.67 42.2528 449.03 37.5932 450.911 35.3555C452.75 33.1585 456.563 30.0521 459.373 28.458C463.185 26.3021 465.853 25.5669 469.849 25.5566ZM314.415 8.17481C317.665 8.17481 317.818 8.34875 317.829 12.0068C317.839 14.1118 317.145 18.1382 316.276 20.9482C315.233 24.3545 314.415 33.5507 313.823 48.5371C313.066 67.6452 312.606 71.8556 310.756 76.6377C309.56 79.7236 307.895 83.2906 307.067 84.5576C306.127 85.988 304.705 86.7641 303.305 86.6006C301.496 86.3961 300.843 85.3535 298.901 76.127L290.029 75.6162C281.894 75.1462 280.882 74.8498 277.928 72.04C276.16 70.354 274.064 67.707 273.267 66.1641C272.47 64.6211 271.826 61.4027 271.836 59.0117C271.847 56.6104 272.92 52.3798 274.239 49.5596C275.557 46.7496 278.889 42.3456 281.638 39.7705C284.398 37.1955 288.598 34.0891 290.99 32.8731C293.381 31.6469 297.061 30.39 302.998 29.501L304.788 21.1318C305.932 15.7774 307.374 11.9451 308.794 10.4736C310.225 8.99224 312.218 8.17481 314.415 8.17481ZM64.8598 24.5957C65.984 24.5344 68.3965 24.9532 70.226 25.5254C72.2905 26.1794 74.13 27.723 75.0805 29.6338C75.9287 31.3198 76.6137 33.8438 76.6137 35.2539C76.6136 36.6538 76.1234 39.0753 75.5307 40.6182C74.9277 42.1611 73.353 44.5723 72.0346 45.9824C70.7059 47.3823 64.9725 50.8365 59.2797 53.6465C49.8671 58.2956 48.9362 59.0112 48.977 61.5654C48.9974 63.1083 49.5289 65.4077 50.1625 66.6748C50.7962 67.9419 52.5238 70.2515 53.9955 71.8047C55.498 73.3885 58.2579 74.9011 60.2612 75.2383C63.1431 75.7184 65.2692 75.0742 71.2172 71.8965C77.8094 68.3712 78.7703 68.1161 80.2113 69.4854C81.0902 70.3232 81.7956 71.3652 81.7651 71.7842C81.7446 72.2031 79.7719 74.6863 77.3803 77.292C74.9888 79.8975 71.1972 82.8201 68.9487 83.7705C66.7002 84.731 63.0204 85.8035 60.7719 86.1611C58.5234 86.5188 54.8437 86.3045 52.5951 85.6914C50.3467 85.0681 46.8414 82.8917 44.7973 80.8584C42.3852 78.4469 40.5047 75.1865 39.4213 71.5283C38.5015 68.4424 37.7548 63.3739 37.7651 60.2881C37.7651 57.2021 38.4809 51.909 39.3598 48.5371C40.2388 45.1651 42.4257 40.1481 44.2143 37.3994C46.0131 34.6405 49.3251 31.125 51.5737 29.582C53.8221 28.0392 57.2765 26.3232 59.2387 25.751C61.2112 25.1788 63.7354 24.6571 64.8598 24.5957ZM174.578 39.0342C173.648 38.8504 172.166 39.77 171.297 41.0674C170.429 42.3651 168.926 46.4224 167.965 50.0703C167.005 53.7183 166.177 60.6359 166.125 65.4385C166.064 72.1315 166.463 74.8194 167.832 76.9346C168.814 78.457 170.776 80.2755 172.176 80.9805C174.22 82.0022 175.243 82.0023 177.287 80.9805C178.768 80.2342 180.873 77.4551 182.304 74.3389C183.663 71.3858 185.074 66.9102 185.442 64.376C185.922 61.147 185.575 58.1015 184.288 54.1572C183.276 51.0713 181.058 46.4731 179.351 43.9492C177.654 41.4253 175.508 39.2079 174.578 39.0342ZM422.324 28.6113C426.841 28.6113 428.671 29.0817 430.245 30.6553C431.369 31.7793 432.626 33.8128 433.035 35.1719C433.443 36.5309 433.556 38.4418 433.29 39.4023C433.025 40.3731 432.003 41.6707 431.032 42.294C429.713 43.1421 428.415 43.0809 425.921 42.0488C424.082 41.2927 421.434 40.4448 420.024 40.169C418.256 39.8319 416.723 40.4141 415.037 42.0693C413.698 43.3773 411.98 45.9424 411.204 47.7715C410.437 49.6007 409.804 53.3914 409.804 56.2012C409.804 59.0112 410.263 62.2305 410.826 63.3545C411.388 64.4784 413.227 66.0928 414.913 66.9307C417.377 68.1671 419.135 68.2593 423.857 67.4316C427.087 66.8696 431.001 66.4092 432.544 66.4092C434.67 66.4194 435.355 66.9202 435.355 68.4629C435.355 69.6482 433.525 71.9576 431.011 73.9502C428.62 75.8406 425.635 77.9153 424.368 78.5488C423.1 79.1823 419.421 79.7139 416.192 79.7344C411.756 79.7548 409.457 79.1921 406.799 77.4346C404.857 76.1573 402.353 73.5005 401.218 71.5283C399.767 69.0249 399.021 65.4993 398.714 59.7774C398.408 54.0145 398.766 50.1011 399.941 46.4941C400.85 43.6841 402.915 39.4733 404.54 37.1436C406.288 34.6301 409.323 32.0249 411.97 30.7578C414.914 29.3477 418.46 28.6114 422.324 28.6113ZM300.586 42.5801C300.075 42.4372 298.113 42.5804 296.223 42.9072C294.332 43.2342 291.174 44.2352 289.202 45.1445C287.229 46.0437 285.011 48.0979 284.254 49.7022C283.426 51.4699 283.12 54.1375 283.488 56.457C283.856 58.7765 285.205 61.3102 286.902 62.8838C288.445 64.3041 291.092 65.7345 292.779 66.0615C294.465 66.3782 296.877 66.1331 298.144 65.5098C299.82 64.6821 300.587 63.2008 300.986 60.0332C301.282 57.6422 301.527 52.7988 301.517 49.2734C301.507 45.7379 301.087 42.7231 300.586 42.5801ZM350.269 34.8037C349.002 34.8344 347.06 35.4067 345.946 36.0811C344.842 36.7453 342.419 38.7891 340.579 40.6182C338.74 42.447 337.238 44.8583 337.238 45.9824C337.238 47.1064 337.585 48.0367 338.004 48.0469C338.423 48.0571 340.263 47.5976 342.092 47.0254C343.922 46.4532 345.414 45.523 345.414 44.9609C345.415 44.399 345.905 43.9395 346.518 43.9395C347.121 43.9395 348.96 42.5599 350.606 40.874C352.241 39.188 353.355 37.1133 353.079 36.2754C352.803 35.4375 351.536 34.7731 350.269 34.8037ZM468.316 34.8652C467.896 34.9267 466.629 35.2126 465.505 35.5088C464.381 35.795 462.542 36.6232 461.417 37.3486C460.293 38.0742 458.454 40.5365 457.329 42.8252C456.205 45.1141 455.643 47.3418 456.082 47.7607C456.522 48.1899 458.699 47.9648 460.937 47.2598C463.165 46.5547 466.599 44.603 468.572 42.917C470.544 41.2312 472.148 38.9327 472.149 37.8086C472.149 36.6846 471.454 35.5298 470.616 35.2539C469.778 34.978 468.735 34.7937 468.316 34.8652ZM62.2026 35.7647C58.7788 35.7647 57.3986 36.3977 54.6391 39.2383C52.7894 41.1489 51.2262 43.6831 51.1645 44.8584C51.0827 46.4933 51.6757 47.0049 53.6176 47.0049C55.0281 47.0048 57.6652 46.259 59.4945 45.3496C61.324 44.4402 63.6336 42.9479 64.6352 42.0283C65.6368 41.1087 66.4437 39.3305 66.4233 38.0635C66.3926 36.0608 65.8614 35.7647 62.2026 35.7647ZM95.5522 0C97.1466 0 98.496 0.848798 99.2319 2.2998C99.8655 3.56719 100.745 6.89827 101.205 9.70801C101.654 12.518 101.705 17.1158 101.317 19.9258C100.683 24.4727 100.336 25.0351 98.1078 25.0352C96.3806 25.0352 94.8671 23.9318 93.2319 21.459C91.3615 18.6285 90.8503 16.4208 90.7992 10.9131C90.7686 7.0917 91.2496 3.0662 91.8832 1.97266C92.5271 0.869101 94.1315 4.35302e-05 95.5522 0Z" fill="#3F643B"/>
</svg>
